# xmcd CD database file
#
# Track frame offsets:
#	150
#	19824
#	35964
#	52565
#	74277
#	94787
#	109820
#	129077
#	147906
#	165484
#	186619
#	206117
#	225486
#	250896
#	268376
#	285349
#
# Disc length: 4119 seconds
#
# Revision: 0
# Processed by: cddbd v1.5.2PL0 Copyright (c) Steve Scherf et al.
# Submitted via: CDex 1.70beta2
#
DISCID=e7101510
DTITLE=Vernon Carne - Simple Pleasures
DYEAR=2006
DGENRE=Jazz
TTITLE0=Simple Measures, Simple Pleasures
TTITLE1=Come Be With Me
TTITLE2=Three Sixteen
TTITLE3=V Groove
TTITLE4=A Handful of Hours
TTITLE5=Apples, Rocks and Angels
TTITLE6=Passion Stone
TTITLE7=Going On A Feeling
TTITLE8=Mr. Wiggles
TTITLE9=Everyday Life
TTITLE10=Lullaby for Jason
TTITLE11=Take It Easy
TTITLE12=Pookie And The Princess
TTITLE13=Three Little Kisses
TTITLE14=When You Are Gone
TTITLE15=Cloud Dance
EXTD=YEAR: 2006
EXTT0=
EXTT1=
EXTT2=
EXTT3=
EXTT4=
EXTT5=
EXTT6=
EXTT7=
EXTT8=
EXTT9=
EXTT10=
EXTT11=
EXTT12=
EXTT13=
EXTT14=
EXTT15=
PLAYORDER=
